<svg xmlns="http://www.w3.org/2000/svg" viewBox="0 0 368.59 197.25"><g id="Layer_2" data-name="Layer 2"><g id="Layer_1-2" data-name="Layer 1"><path d="M29,45.7v5H0v-40H28.22v5H5.71V27.94H25.76v4.85h-20V45.7Z"/><path d="M74.78,15.65H61.07v-5H94.15v5H80.44v35H74.78Z"/><path d="M158,45.7v5h-29v-40h28.22v5H134.65V27.94h20v4.85h-20V45.7ZM146.59,0h7L144,7.43h-5.14Z"/><path d="M222.51,50.67l-8.62-12.28c-1.07.07-1.91.11-2.52.11h-9.88V50.67h-5.71v-40h15.59q7.77,0,12.23,3.72a12.58,12.58,0,0,1,4.46,10.22,13.38,13.38,0,0,1-2.29,7.88,12.94,12.94,0,0,1-6.51,4.75l9.48,13.42Zm-3-19.36a8.18,8.18,0,0,0,2.85-6.69A8.07,8.07,0,0,0,219.49,18q-2.87-2.32-8.29-2.32h-9.71v18h9.71Q216.63,33.65,219.49,31.31Z"/><path d="M294.9,45.7v5h-29v-40H294.1v5H271.58V27.94h20.05v4.85H271.58V45.7Z"/><path d="M358.19,40.68H336.94l-4.4,10h-5.88l18.11-40h5.65l18.17,40h-6Zm-2-4.58-8.63-19.59L338.94,36.1Z"/><path d="M319.54,135.07a3.57,3.57,0,0,0-2.34-.42,3.7,3.7,0,0,0-2.8,2.43,96.73,96.73,0,0,1-10.12,19.76,58.46,58.46,0,0,1-14.44,15,47.33,47.33,0,0,1-20.08,8,40.84,40.84,0,0,1-15.1,0,39.39,39.39,0,0,1-12.6-4.93,56.69,56.69,0,0,1-9-6.86,63.77,63.77,0,0,0,10.12-10.58,43,43,0,0,0,7.48-15.6,40.75,40.75,0,0,0,.76-16.58,21.54,21.54,0,0,0-5.26-11.2,22.76,22.76,0,0,0-10-6.36,25.69,25.69,0,0,0-12.17-.81A80.29,80.29,0,0,0,194.45,118l-2.17-2.91C182,101.64,171,95.79,159.66,97.68a24.58,24.58,0,0,0-16.08,10.1c-4.19,5.64-5.52,13.25-4,22.62,1.27,7.57,4.81,15.51,10.55,23.62-6.53,5.58-12.95,10.6-19.09,14.92a142,142,0,0,1-22.18,12.84,96.19,96.19,0,0,1-24.47,7.49,35.3,35.3,0,0,1-16.31-.92A28.66,28.66,0,0,1,59.4,184a4.69,4.69,0,0,0,.35-.71,78.5,78.5,0,0,0,2.85-10.63A31.15,31.15,0,0,0,63,161.33a21.79,21.79,0,0,0-2-6A15.36,15.36,0,0,0,56.79,150a8.68,8.68,0,0,0-7.17-1.77A9,9,0,0,0,43,152.84a17.31,17.31,0,0,0-2,7.37,31.94,31.94,0,0,0,.3,6.79,35.17,35.17,0,0,0,8.43,18.21,35.59,35.59,0,0,0,16.06,10.21,42.72,42.72,0,0,0,19.92,1.17,104.37,104.37,0,0,0,26.17-7.93,148.8,148.8,0,0,0,23.37-13.41c6.28-4.43,12.84-9.57,19.5-15.29,1.77,2.14,3.7,4.3,5.75,6.45,12,12.59,24.35,19.67,36.83,21.05a9.82,9.82,0,0,0,5.32-1,142.89,142.89,0,0,0,24.36-14,65,65,0,0,0,11,8.59A47.33,47.33,0,0,0,253,187a48.52,48.52,0,0,0,18,.09A55,55,0,0,0,293.93,178a65.54,65.54,0,0,0,16.36-16.76,103,103,0,0,0,11.08-21.51,3.66,3.66,0,0,0,.22-2A3.8,3.8,0,0,0,319.54,135.07Zm-158.65-30c8.73-1.45,17.54,3.64,26.16,15.09l1.41,1.93c-9.62,7.07-18.7,14.37-27,21.74-1.87,1.74-3.75,3.46-5.62,5.15-4.79-6.84-7.74-13.5-8.8-19.83-1.26-7.55-.46-13.3,2.38-17.1A17.26,17.26,0,0,1,160.89,105.08Zm5.54,44.28c8.16-7.22,17-14.34,26.44-21.3,6,8,10,13.55,12.07,16.6,2.85,4.24,5.83,8.46,8.85,12.54,2.52,3.41,5.18,6.71,7.93,9.82a141.32,141.32,0,0,1-21.51,12.5,5.69,5.69,0,0,1-1.4.5,4.69,4.69,0,0,1-1.45,0c-10.15-1.52-20.76-7.95-31.56-19.12-1.93-2-3.75-4-5.42-6Q163.5,152.06,166.43,149.36Zm32.49-25.46a73.84,73.84,0,0,1,26.29-9.68,18.33,18.33,0,0,1,8.55.51,14.94,14.94,0,0,1,6.77,4.22,14.12,14.12,0,0,1,3.47,7.48,33.29,33.29,0,0,1-.69,13.7,36.43,36.43,0,0,1-6.39,13.07,55.58,55.58,0,0,1-9.14,9.44,117.62,117.62,0,0,1-7.91-9.76c-3-4.08-6-8.21-8.8-12.35C209,137.41,204.89,131.82,198.92,123.9ZM49.21,157a2,2,0,0,1,1.65-1.39,1.69,1.69,0,0,1,1.66.51,9.61,9.61,0,0,1,2,3.05,15.38,15.38,0,0,1,1.06,3.37,24.25,24.25,0,0,1-.35,8.94c-.5,2.38-1.06,4.62-1.65,6.66a28.76,28.76,0,0,1-5-12.39,24.83,24.83,0,0,1-.23-4.29A12.51,12.51,0,0,1,49.21,157Z"/></g></g></svg>